<svg xmlns="http://www.w3.org/2000/svg" width="640" height="360" viewBox="0 0 640 360" role="img">
  <defs>
    <linearGradient id="shade" x1="0" y1="0" x2="1" y2="1"><stop offset="0" stop-color="#fff" stop-opacity=".18"/><stop offset=".48" stop-color="#000" stop-opacity="0"/><stop offset="1" stop-color="#000" stop-opacity=".42"/></linearGradient>
    <radialGradient id="light" cx="42%" cy="28%" r="70%"><stop offset="0" stop-color="#fff8e6" stop-opacity=".34"/><stop offset=".48" stop-color="#e7b96a" stop-opacity=".08"/><stop offset="1" stop-color="#03050a" stop-opacity=".72"/></radialGradient>
    <filter id="grain"><feTurbulence type="fractalNoise" baseFrequency=".9" numOctaves="2" stitchTiles="stitch"/><feColorMatrix type="saturate" values="0"/><feComponentTransfer><feFuncA type="table" tableValues="0 .13"/></feComponentTransfer></filter>
  </defs>
  <rect width="640" height="120" fill="#ff9933"/><rect y="120" width="640" height="120" fill="#f8efe1"/><rect y="240" width="640" height="120" fill="#138808"/><circle cx="320" cy="180" r="54" fill="none" stroke="#1f3b7a" stroke-width="8" opacity=".78"/><path d="M320 180 L370 180" stroke="#1f3b7a" stroke-width="3" opacity=".55"/><path d="M320 180 L366.19397662556435 199.1341716182545" stroke="#1f3b7a" stroke-width="3" opacity=".55"/><path d="M320 180 L355.3553390593274 215.35533905932738" stroke="#1f3b7a" stroke-width="3" opacity=".55"/><path d="M320 180 L339.13417161825447 226.19397662556435" stroke="#1f3b7a" stroke-width="3" opacity=".55"/><path d="M320 180 L320 230" stroke="#1f3b7a" stroke-width="3" opacity=".55"/><path d="M320 180 L300.86582838174553 226.19397662556435" stroke="#1f3b7a" stroke-width="3" opacity=".55"/><path d="M320 180 L284.6446609406726 215.35533905932738" stroke="#1f3b7a" stroke-width="3" opacity=".55"/><path d="M320 180 L273.80602337443565 199.1341716182545" stroke="#1f3b7a" stroke-width="3" opacity=".55"/><path d="M320 180 L270 180" stroke="#1f3b7a" stroke-width="3" opacity=".55"/><path d="M320 180 L273.80602337443565 160.86582838174553" stroke="#1f3b7a" stroke-width="3" opacity=".55"/><path d="M320 180 L284.6446609406726 144.64466094067262" stroke="#1f3b7a" stroke-width="3" opacity=".55"/><path d="M320 180 L300.8658283817455 133.80602337443568" stroke="#1f3b7a" stroke-width="3" opacity=".55"/><path d="M320 180 L320 130" stroke="#1f3b7a" stroke-width="3" opacity=".55"/><path d="M320 180 L339.1341716182545 133.80602337443565" stroke="#1f3b7a" stroke-width="3" opacity=".55"/><path d="M320 180 L355.3553390593274 144.64466094067262" stroke="#1f3b7a" stroke-width="3" opacity=".55"/><path d="M320 180 L366.19397662556435 160.86582838174547" stroke="#1f3b7a" stroke-width="3" opacity=".55"/>
  <rect width="640" height="360" fill="url(#light)"/>
  <rect width="640" height="360" filter="url(#grain)" opacity=".55"/>
  <rect x="18" y="18" width="604" height="324" rx="28" fill="none" stroke="#f7efe0" stroke-opacity=".18"/>
</svg>