<svg xmlns="http://www.w3.org/2000/svg" width="640" height="360" viewBox="0 0 640 360" role="img">
  <defs>
    <linearGradient id="shade" x1="0" y1="0" x2="1" y2="1"><stop offset="0" stop-color="#fff" stop-opacity=".18"/><stop offset=".48" stop-color="#000" stop-opacity="0"/><stop offset="1" stop-color="#000" stop-opacity=".42"/></linearGradient>
    <radialGradient id="light" cx="42%" cy="28%" r="70%"><stop offset="0" stop-color="#fff8e6" stop-opacity=".34"/><stop offset=".48" stop-color="#e7b96a" stop-opacity=".08"/><stop offset="1" stop-color="#03050a" stop-opacity=".72"/></radialGradient>
    <filter id="grain"><feTurbulence type="fractalNoise" baseFrequency=".9" numOctaves="2" stitchTiles="stitch"/><feColorMatrix type="saturate" values="0"/><feComponentTransfer><feFuncA type="table" tableValues="0 .13"/></feComponentTransfer></filter>
  </defs>
  <rect width="640" height="360" fill="#0b5f44"/><circle cx="0" cy="0" r="34" fill="none" stroke="#b91c1c" stroke-width="5" opacity=".18"/><circle cx="48" cy="0" r="34" fill="none" stroke="#b91c1c" stroke-width="5" opacity=".18"/><circle cx="96" cy="0" r="34" fill="none" stroke="#b91c1c" stroke-width="5" opacity=".18"/><circle cx="144" cy="0" r="34" fill="none" stroke="#b91c1c" stroke-width="5" opacity=".18"/><circle cx="192" cy="0" r="34" fill="none" stroke="#b91c1c" stroke-width="5" opacity=".18"/><circle cx="240" cy="0" r="34" fill="none" stroke="#b91c1c" stroke-width="5" opacity=".18"/><circle cx="288" cy="0" r="34" fill="none" stroke="#b91c1c" stroke-width="5" opacity=".18"/><circle cx="336" cy="0" r="34" fill="none" stroke="#b91c1c" stroke-width="5" opacity=".18"/><circle cx="384" cy="0" r="34" fill="none" stroke="#b91c1c" stroke-width="5" opacity=".18"/><circle cx="432" cy="0" r="34" fill="none" stroke="#b91c1c" stroke-width="5" opacity=".18"/><circle cx="480" cy="0" r="34" fill="none" stroke="#b91c1c" stroke-width="5" opacity=".18"/><circle cx="528" cy="0" r="34" fill="none" stroke="#b91c1c" stroke-width="5" opacity=".18"/><circle cx="576" cy="0" r="34" fill="none" stroke="#b91c1c" stroke-width="5" opacity=".18"/><circle cx="624" cy="0" r="34" fill="none" stroke="#b91c1c" stroke-width="5" opacity=".18"/><circle cx="672" cy="0" r="34" fill="none" stroke="#b91c1c" stroke-width="5" opacity=".18"/><circle cx="720" cy="0" r="34" fill="none" stroke="#b91c1c" stroke-width="5" opacity=".18"/><circle cx="24" cy="42" r="34" fill="none" stroke="#f8efe1" stroke-width="5" opacity=".18"/><circle cx="72" cy="42" r="34" fill="none" stroke="#f8efe1" stroke-width="5" opacity=".18"/><circle cx="120" cy="42" r="34" fill="none" stroke="#f8efe1" stroke-width="5" opacity=".18"/><circle cx="168" cy="42" r="34" fill="none" stroke="#f8efe1" stroke-width="5" opacity=".18"/><circle cx="216" cy="42" r="34" fill="none" stroke="#f8efe1" stroke-width="5" opacity=".18"/><circle cx="264" cy="42" r="34" fill="none" stroke="#f8efe1" stroke-width="5" opacity=".18"/><circle cx="312" cy="42" r="34" fill="none" stroke="#f8efe1" stroke-width="5" opacity=".18"/><circle cx="360" cy="42" r="34" fill="none" stroke="#f8efe1" stroke-width="5" opacity=".18"/><circle cx="408" cy="42" r="34" fill="none" stroke="#f8efe1" stroke-width="5" opacity=".18"/><circle cx="456" cy="42" r="34" fill="none" stroke="#f8efe1" stroke-width="5" opacity=".18"/><circle cx="504" cy="42" r="34" fill="none" stroke="#f8efe1" stroke-width="5" opacity=".18"/><circle cx="552" cy="42" r="34" fill="none" stroke="#f8efe1" stroke-width="5" opacity=".18"/><circle cx="600" cy="42" r="34" fill="none" stroke="#f8efe1" stroke-width="5" opacity=".18"/><circle cx="648" cy="42" r="34" fill="none" stroke="#f8efe1" stroke-width="5" opacity=".18"/><circle cx="696" cy="42" r="34" fill="none" stroke="#f8efe1" stroke-width="5" opacity=".18"/><circle cx="744" cy="42" r="34" fill="none" stroke="#f8efe1" stroke-width="5" opacity=".18"/><circle cx="0" cy="84" r="34" fill="none" stroke="#b91c1c" stroke-width="5" opacity=".18"/><circle cx="48" cy="84" r="34" fill="none" stroke="#b91c1c" stroke-width="5" opacity=".18"/><circle cx="96" cy="84" r="34" fill="none" stroke="#b91c1c" stroke-width="5" opacity=".18"/><circle cx="144" cy="84" r="34" fill="none" stroke="#b91c1c" stroke-width="5" opacity=".18"/><circle cx="192" cy="84" r="34" fill="none" stroke="#b91c1c" stroke-width="5" opacity=".18"/><circle cx="240" cy="84" r="34" fill="none" stroke="#b91c1c" stroke-width="5" opacity=".18"/><circle cx="288" cy="84" r="34" fill="none" stroke="#b91c1c" stroke-width="5" opacity=".18"/><circle cx="336" cy="84" r="34" fill="none" stroke="#b91c1c" stroke-width="5" opacity=".18"/><circle cx="384" cy="84" r="34" fill="none" stroke="#b91c1c" stroke-width="5" opacity=".18"/><circle cx="432" cy="84" r="34" fill="none" stroke="#b91c1c" stroke-width="5" opacity=".18"/><circle cx="480" cy="84" r="34" fill="none" stroke="#b91c1c" stroke-width="5" opacity=".18"/><circle cx="528" cy="84" r="34" fill="none" stroke="#b91c1c" stroke-width="5" opacity=".18"/><circle cx="576" cy="84" r="34" fill="none" stroke="#b91c1c" stroke-width="5" opacity=".18"/><circle cx="624" cy="84" r="34" fill="none" stroke="#b91c1c" stroke-width="5" opacity=".18"/><circle cx="672" cy="84" r="34" fill="none" stroke="#b91c1c" stroke-width="5" opacity=".18"/><circle cx="720" cy="84" r="34" fill="none" stroke="#b91c1c" stroke-width="5" opacity=".18"/><circle cx="24" cy="126" r="34" fill="none" stroke="#f8efe1" stroke-width="5" opacity=".18"/><circle cx="72" cy="126" r="34" fill="none" stroke="#f8efe1" stroke-width="5" opacity=".18"/><circle cx="120" cy="126" r="34" fill="none" stroke="#f8efe1" stroke-width="5" opacity=".18"/><circle cx="168" cy="126" r="34" fill="none" stroke="#f8efe1" stroke-width="5" opacity=".18"/><circle cx="216" cy="126" r="34" fill="none" stroke="#f8efe1" stroke-width="5" opacity=".18"/><circle cx="264" cy="126" r="34" fill="none" stroke="#f8efe1" stroke-width="5" opacity=".18"/><circle cx="312" cy="126" r="34" fill="none" stroke="#f8efe1" stroke-width="5" opacity=".18"/><circle cx="360" cy="126" r="34" fill="none" stroke="#f8efe1" stroke-width="5" opacity=".18"/><circle cx="408" cy="126" r="34" fill="none" stroke="#f8efe1" stroke-width="5" opacity=".18"/><circle cx="456" cy="126" r="34" fill="none" stroke="#f8efe1" stroke-width="5" opacity=".18"/><circle cx="504" cy="126" r="34" fill="none" stroke="#f8efe1" stroke-width="5" opacity=".18"/><circle cx="552" cy="126" r="34" fill="none" stroke="#f8efe1" stroke-width="5" opacity=".18"/><circle cx="600" cy="126" r="34" fill="none" stroke="#f8efe1" stroke-width="5" opacity=".18"/><circle cx="648" cy="126" r="34" fill="none" stroke="#f8efe1" stroke-width="5" opacity=".18"/><circle cx="696" cy="126" r="34" fill="none" stroke="#f8efe1" stroke-width="5" opacity=".18"/><circle cx="744" cy="126" r="34" fill="none" stroke="#f8efe1" stroke-width="5" opacity=".18"/><circle cx="0" cy="168" r="34" fill="none" stroke="#b91c1c" stroke-width="5" opacity=".18"/><circle cx="48" cy="168" r="34" fill="none" stroke="#b91c1c" stroke-width="5" opacity=".18"/><circle cx="96" cy="168" r="34" fill="none" stroke="#b91c1c" stroke-width="5" opacity=".18"/><circle cx="144" cy="168" r="34" fill="none" stroke="#b91c1c" stroke-width="5" opacity=".18"/><circle cx="192" cy="168" r="34" fill="none" stroke="#b91c1c" stroke-width="5" opacity=".18"/><circle cx="240" cy="168" r="34" fill="none" stroke="#b91c1c" stroke-width="5" opacity=".18"/><circle cx="288" cy="168" r="34" fill="none" stroke="#b91c1c" stroke-width="5" opacity=".18"/><circle cx="336" cy="168" r="34" fill="none" stroke="#b91c1c" stroke-width="5" opacity=".18"/><circle cx="384" cy="168" r="34" fill="none" stroke="#b91c1c" stroke-width="5" opacity=".18"/><circle cx="432" cy="168" r="34" fill="none" stroke="#b91c1c" stroke-width="5" opacity=".18"/><circle cx="480" cy="168" r="34" fill="none" stroke="#b91c1c" stroke-width="5" opacity=".18"/><circle cx="528" cy="168" r="34" fill="none" stroke="#b91c1c" stroke-width="5" opacity=".18"/><circle cx="576" cy="168" r="34" fill="none" stroke="#b91c1c" stroke-width="5" opacity=".18"/><circle cx="624" cy="168" r="34" fill="none" stroke="#b91c1c" stroke-width="5" opacity=".18"/><circle cx="672" cy="168" r="34" fill="none" stroke="#b91c1c" stroke-width="5" opacity=".18"/><circle cx="720" cy="168" r="34" fill="none" stroke="#b91c1c" stroke-width="5" opacity=".18"/><circle cx="24" cy="210" r="34" fill="none" stroke="#f8efe1" stroke-width="5" opacity=".18"/><circle cx="72" cy="210" r="34" fill="none" stroke="#f8efe1" stroke-width="5" opacity=".18"/><circle cx="120" cy="210" r="34" fill="none" stroke="#f8efe1" stroke-width="5" opacity=".18"/><circle cx="168" cy="210" r="34" fill="none" stroke="#f8efe1" stroke-width="5" opacity=".18"/><circle cx="216" cy="210" r="34" fill="none" stroke="#f8efe1" stroke-width="5" opacity=".18"/><circle cx="264" cy="210" r="34" fill="none" stroke="#f8efe1" stroke-width="5" opacity=".18"/><circle cx="312" cy="210" r="34" fill="none" stroke="#f8efe1" stroke-width="5" opacity=".18"/><circle cx="360" cy="210" r="34" fill="none" stroke="#f8efe1" stroke-width="5" opacity=".18"/><circle cx="408" cy="210" r="34" fill="none" stroke="#f8efe1" stroke-width="5" opacity=".18"/><circle cx="456" cy="210" r="34" fill="none" stroke="#f8efe1" stroke-width="5" opacity=".18"/><circle cx="504" cy="210" r="34" fill="none" stroke="#f8efe1" stroke-width="5" opacity=".18"/><circle cx="552" cy="210" r="34" fill="none" stroke="#f8efe1" stroke-width="5" opacity=".18"/><circle cx="600" cy="210" r="34" fill="none" stroke="#f8efe1" stroke-width="5" opacity=".18"/><circle cx="648" cy="210" r="34" fill="none" stroke="#f8efe1" stroke-width="5" opacity=".18"/><circle cx="696" cy="210" r="34" fill="none" stroke="#f8efe1" stroke-width="5" opacity=".18"/><circle cx="744" cy="210" r="34" fill="none" stroke="#f8efe1" stroke-width="5" opacity=".18"/><circle cx="0" cy="252" r="34" fill="none" stroke="#b91c1c" stroke-width="5" opacity=".18"/><circle cx="48" cy="252" r="34" fill="none" stroke="#b91c1c" stroke-width="5" opacity=".18"/><circle cx="96" cy="252" r="34" fill="none" stroke="#b91c1c" stroke-width="5" opacity=".18"/><circle cx="144" cy="252" r="34" fill="none" stroke="#b91c1c" stroke-width="5" opacity=".18"/><circle cx="192" cy="252" r="34" fill="none" stroke="#b91c1c" stroke-width="5" opacity=".18"/><circle cx="240" cy="252" r="34" fill="none" stroke="#b91c1c" stroke-width="5" opacity=".18"/><circle cx="288" cy="252" r="34" fill="none" stroke="#b91c1c" stroke-width="5" opacity=".18"/><circle cx="336" cy="252" r="34" fill="none" stroke="#b91c1c" stroke-width="5" opacity=".18"/><circle cx="384" cy="252" r="34" fill="none" stroke="#b91c1c" stroke-width="5" opacity=".18"/><circle cx="432" cy="252" r="34" fill="none" stroke="#b91c1c" stroke-width="5" opacity=".18"/><circle cx="480" cy="252" r="34" fill="none" stroke="#b91c1c" stroke-width="5" opacity=".18"/><circle cx="528" cy="252" r="34" fill="none" stroke="#b91c1c" stroke-width="5" opacity=".18"/><circle cx="576" cy="252" r="34" fill="none" stroke="#b91c1c" stroke-width="5" opacity=".18"/><circle cx="624" cy="252" r="34" fill="none" stroke="#b91c1c" stroke-width="5" opacity=".18"/><circle cx="672" cy="252" r="34" fill="none" stroke="#b91c1c" stroke-width="5" opacity=".18"/><circle cx="720" cy="252" r="34" fill="none" stroke="#b91c1c" stroke-width="5" opacity=".18"/><circle cx="24" cy="294" r="34" fill="none" stroke="#f8efe1" stroke-width="5" opacity=".18"/><circle cx="72" cy="294" r="34" fill="none" stroke="#f8efe1" stroke-width="5" opacity=".18"/><circle cx="120" cy="294" r="34" fill="none" stroke="#f8efe1" stroke-width="5" opacity=".18"/><circle cx="168" cy="294" r="34" fill="none" stroke="#f8efe1" stroke-width="5" opacity=".18"/><circle cx="216" cy="294" r="34" fill="none" stroke="#f8efe1" stroke-width="5" opacity=".18"/><circle cx="264" cy="294" r="34" fill="none" stroke="#f8efe1" stroke-width="5" opacity=".18"/><circle cx="312" cy="294" r="34" fill="none" stroke="#f8efe1" stroke-width="5" opacity=".18"/><circle cx="360" cy="294" r="34" fill="none" stroke="#f8efe1" stroke-width="5" opacity=".18"/><circle cx="408" cy="294" r="34" fill="none" stroke="#f8efe1" stroke-width="5" opacity=".18"/><circle cx="456" cy="294" r="34" fill="none" stroke="#f8efe1" stroke-width="5" opacity=".18"/><circle cx="504" cy="294" r="34" fill="none" stroke="#f8efe1" stroke-width="5" opacity=".18"/><circle cx="552" cy="294" r="34" fill="none" stroke="#f8efe1" stroke-width="5" opacity=".18"/><circle cx="600" cy="294" r="34" fill="none" stroke="#f8efe1" stroke-width="5" opacity=".18"/><circle cx="648" cy="294" r="34" fill="none" stroke="#f8efe1" stroke-width="5" opacity=".18"/><circle cx="696" cy="294" r="34" fill="none" stroke="#f8efe1" stroke-width="5" opacity=".18"/><circle cx="744" cy="294" r="34" fill="none" stroke="#f8efe1" stroke-width="5" opacity=".18"/><circle cx="0" cy="336" r="34" fill="none" stroke="#b91c1c" stroke-width="5" opacity=".18"/><circle cx="48" cy="336" r="34" fill="none" stroke="#b91c1c" stroke-width="5" opacity=".18"/><circle cx="96" cy="336" r="34" fill="none" stroke="#b91c1c" stroke-width="5" opacity=".18"/><circle cx="144" cy="336" r="34" fill="none" stroke="#b91c1c" stroke-width="5" opacity=".18"/><circle cx="192" cy="336" r="34" fill="none" stroke="#b91c1c" stroke-width="5" opacity=".18"/><circle cx="240" cy="336" r="34" fill="none" stroke="#b91c1c" stroke-width="5" opacity=".18"/><circle cx="288" cy="336" r="34" fill="none" stroke="#b91c1c" stroke-width="5" opacity=".18"/><circle cx="336" cy="336" r="34" fill="none" stroke="#b91c1c" stroke-width="5" opacity=".18"/><circle cx="384" cy="336" r="34" fill="none" stroke="#b91c1c" stroke-width="5" opacity=".18"/><circle cx="432" cy="336" r="34" fill="none" stroke="#b91c1c" stroke-width="5" opacity=".18"/><circle cx="480" cy="336" r="34" fill="none" stroke="#b91c1c" stroke-width="5" opacity=".18"/><circle cx="528" cy="336" r="34" fill="none" stroke="#b91c1c" stroke-width="5" opacity=".18"/><circle cx="576" cy="336" r="34" fill="none" stroke="#b91c1c" stroke-width="5" opacity=".18"/><circle cx="624" cy="336" r="34" fill="none" stroke="#b91c1c" stroke-width="5" opacity=".18"/><circle cx="672" cy="336" r="34" fill="none" stroke="#b91c1c" stroke-width="5" opacity=".18"/><circle cx="720" cy="336" r="34" fill="none" stroke="#b91c1c" stroke-width="5" opacity=".18"/><circle cx="24" cy="378" r="34" fill="none" stroke="#f8efe1" stroke-width="5" opacity=".18"/><circle cx="72" cy="378" r="34" fill="none" stroke="#f8efe1" stroke-width="5" opacity=".18"/><circle cx="120" cy="378" r="34" fill="none" stroke="#f8efe1" stroke-width="5" opacity=".18"/><circle cx="168" cy="378" r="34" fill="none" stroke="#f8efe1" stroke-width="5" opacity=".18"/><circle cx="216" cy="378" r="34" fill="none" stroke="#f8efe1" stroke-width="5" opacity=".18"/><circle cx="264" cy="378" r="34" fill="none" stroke="#f8efe1" stroke-width="5" opacity=".18"/><circle cx="312" cy="378" r="34" fill="none" stroke="#f8efe1" stroke-width="5" opacity=".18"/><circle cx="360" cy="378" r="34" fill="none" stroke="#f8efe1" stroke-width="5" opacity=".18"/><circle cx="408" cy="378" r="34" fill="none" stroke="#f8efe1" stroke-width="5" opacity=".18"/><circle cx="456" cy="378" r="34" fill="none" stroke="#f8efe1" stroke-width="5" opacity=".18"/><circle cx="504" cy="378" r="34" fill="none" stroke="#f8efe1" stroke-width="5" opacity=".18"/><circle cx="552" cy="378" r="34" fill="none" stroke="#f8efe1" stroke-width="5" opacity=".18"/><circle cx="600" cy="378" r="34" fill="none" stroke="#f8efe1" stroke-width="5" opacity=".18"/><circle cx="648" cy="378" r="34" fill="none" stroke="#f8efe1" stroke-width="5" opacity=".18"/><circle cx="696" cy="378" r="34" fill="none" stroke="#f8efe1" stroke-width="5" opacity=".18"/><circle cx="744" cy="378" r="34" fill="none" stroke="#f8efe1" stroke-width="5" opacity=".18"/>
  <rect width="640" height="360" fill="url(#light)"/>
  <rect width="640" height="360" filter="url(#grain)" opacity=".55"/>
  <rect x="18" y="18" width="604" height="324" rx="28" fill="none" stroke="#f7efe0" stroke-opacity=".18"/>
</svg>