<svg xmlns="http://www.w3.org/2000/svg" width="640" height="360" viewBox="0 0 640 360" role="img">
  <defs>
    <linearGradient id="shade" x1="0" y1="0" x2="1" y2="1"><stop offset="0" stop-color="#fff" stop-opacity=".18"/><stop offset=".48" stop-color="#000" stop-opacity="0"/><stop offset="1" stop-color="#000" stop-opacity=".42"/></linearGradient>
    <radialGradient id="light" cx="42%" cy="28%" r="70%"><stop offset="0" stop-color="#fff8e6" stop-opacity=".34"/><stop offset=".48" stop-color="#e7b96a" stop-opacity=".08"/><stop offset="1" stop-color="#03050a" stop-opacity=".72"/></radialGradient>
    <filter id="grain"><feTurbulence type="fractalNoise" baseFrequency=".9" numOctaves="2" stitchTiles="stitch"/><feColorMatrix type="saturate" values="0"/><feComponentTransfer><feFuncA type="table" tableValues="0 .13"/></feComponentTransfer></filter>
  </defs>
  <rect width="640" height="120" fill="#6aa6d8"/><rect y="120" width="640" height="120" fill="#f8efe1"/><rect y="240" width="640" height="120" fill="#6aa6d8"/><circle cx="320" cy="180" r="54" fill="#d7b46a" opacity=".85"/><path d="M320 180 L412 180" stroke="#d7b46a" stroke-width="8" opacity=".38"/><path d="M320 180 L406.4517211123036 211.46585318596152" stroke="#d7b46a" stroke-width="8" opacity=".38"/><path d="M320 180 L390.47608876694596 239.1364600911616" stroke="#d7b46a" stroke-width="8" opacity=".38"/><path d="M320 180 L366 259.6743371481683" stroke="#d7b46a" stroke-width="8" opacity=".38"/><path d="M320 180 L335.9756323453576 270.60231327712313" stroke="#d7b46a" stroke-width="8" opacity=".38"/><path d="M320 180 L304.0243676546424 270.60231327712313" stroke="#d7b46a" stroke-width="8" opacity=".38"/><path d="M320 180 L274 259.6743371481684" stroke="#d7b46a" stroke-width="8" opacity=".38"/><path d="M320 180 L249.52391123305404 239.13646009116164" stroke="#d7b46a" stroke-width="8" opacity=".38"/><path d="M320 180 L233.54827888769643 211.46585318596152" stroke="#d7b46a" stroke-width="8" opacity=".38"/><path d="M320 180 L228 180" stroke="#d7b46a" stroke-width="8" opacity=".38"/><path d="M320 180 L233.54827888769643 148.53414681403848" stroke="#d7b46a" stroke-width="8" opacity=".38"/><path d="M320 180 L249.52391123305398 120.86353990883842" stroke="#d7b46a" stroke-width="8" opacity=".38"/><path d="M320 180 L273.99999999999994 100.32566285183167" stroke="#d7b46a" stroke-width="8" opacity=".38"/><path d="M320 180 L304.0243676546424 89.39768672287686" stroke="#d7b46a" stroke-width="8" opacity=".38"/><path d="M320 180 L335.97563234535755 89.39768672287686" stroke="#d7b46a" stroke-width="8" opacity=".38"/><path d="M320 180 L365.99999999999994 100.32566285183161" stroke="#d7b46a" stroke-width="8" opacity=".38"/><path d="M320 180 L390.47608876694596 120.86353990883836" stroke="#d7b46a" stroke-width="8" opacity=".38"/><path d="M320 180 L406.4517211123036 148.53414681403848" stroke="#d7b46a" stroke-width="8" opacity=".38"/>
  <rect width="640" height="360" fill="url(#light)"/>
  <rect width="640" height="360" filter="url(#grain)" opacity=".55"/>
  <rect x="18" y="18" width="604" height="324" rx="28" fill="none" stroke="#f7efe0" stroke-opacity=".18"/>
</svg>