<svg xmlns="http://www.w3.org/2000/svg" viewBox="0 0 64 64" role="img" aria-label="Chess Learning">
  <defs>
    <linearGradient id="bg" x1="10" y1="5" x2="58" y2="62" gradientUnits="userSpaceOnUse">
      <stop stop-color="#111820"/>
      <stop offset=".52" stop-color="#06080c"/>
      <stop offset="1" stop-color="#1c1710"/>
    </linearGradient>
    <linearGradient id="piece" x1="23" y1="9" x2="43" y2="54" gradientUnits="userSpaceOnUse">
      <stop stop-color="#fff8e9"/>
      <stop offset=".46" stop-color="#eadfc8"/>
      <stop offset="1" stop-color="#b99b62"/>
    </linearGradient>
    <radialGradient id="glow" cx="0" cy="0" r="1" gradientTransform="matrix(0 31 -31 0 32 33)" gradientUnits="userSpaceOnUse">
      <stop stop-color="#d8b16a" stop-opacity=".44"/>
      <stop offset=".46" stop-color="#d8b16a" stop-opacity=".12"/>
      <stop offset="1" stop-color="#d8b16a" stop-opacity="0"/>
    </radialGradient>
    <filter id="shadow" x="8" y="7" width="48" height="52" color-interpolation-filters="sRGB" filterUnits="userSpaceOnUse">
      <feDropShadow dx="0" dy="2" stdDeviation="1.6" flood-color="#000" flood-opacity=".48"/>
    </filter>
  </defs>

  <rect width="64" height="64" rx="15" fill="url(#bg)"/>
  <rect x="1.25" y="1.25" width="61.5" height="61.5" rx="13.75" fill="none" stroke="#d8b16a" stroke-opacity=".36" stroke-width="1.5"/>
  <path d="M12 48h10V38H12v10Zm30-30h10V8H42v10Z" fill="#f7efe0" opacity=".08"/>
  <path d="M22 18h10V8H22v10Zm20 30h10V38H42v10Z" fill="#d8b16a" opacity=".10"/>
  <circle cx="32" cy="33" r="31" fill="url(#glow)"/>

  <g filter="url(#shadow)">
    <circle cx="32" cy="15.5" r="6.75" fill="url(#piece)"/>
    <path d="M27.25 23.4c0-2.3 2.05-4.05 4.75-4.05s4.75 1.75 4.75 4.05l2.2 14.35h4.15c2.35 0 4.25 1.85 4.25 4.15 0 1.65-.96 3.05-2.35 3.72l3.15 6.38h-32.3L19 45.62c-1.39-.67-2.35-2.07-2.35-3.72 0-2.3 1.9-4.15 4.25-4.15h4.15l2.2-14.35Z" fill="url(#piece)"/>
    <path d="M22.5 45.5h19M19.5 52h25" stroke="#fff6df" stroke-opacity=".54" stroke-width="2.2" stroke-linecap="round"/>
  </g>
</svg>
